<svg width="45" height="45" viewBox="0 0 45 45" fill="none" xmlns="http://www.w3.org/2000/svg">
<g clip-path="url(#clip0_4_25)">
<path d="M11.7628 23.4316C10.5964 26.7429 10.551 30.3191 11.5058 33.7075C11.6916 34.3638 10.8653 34.8245 10.4007 34.3263C8.0739 31.8393 6.50424 28.6308 6.06536 25.0744C5.98233 24.4022 5.93884 23.7182 5.93884 23.0243C5.93884 21.1383 6.25712 19.3235 6.83833 17.6333C6.91741 17.402 7.1151 17.232 7.35628 17.1964C9.61391 16.8504 12.1661 16.5796 14.9278 16.4037C15.5209 16.3661 15.8511 17.0758 15.4399 17.5068C14.0224 18.9855 12.6425 20.9347 11.7628 23.4335V23.4316Z" fill="url(#paint0_linear_4_25)"/>
<path d="M44.4766 21.9608C44.4726 21.8066 44.4687 21.6524 44.4608 21.5001V21.4843C44.4568 21.4092 44.4529 21.3341 44.4489 21.259C44.443 21.166 44.4371 21.0711 44.4311 20.9782C44.4252 20.8952 44.4193 20.8122 44.4113 20.7291C44.4015 20.6006 44.3896 20.4741 44.3777 20.3476C44.3738 20.3061 44.3698 20.2646 44.3659 20.225C44.352 20.0965 44.3382 19.968 44.3224 19.8395C44.3204 19.8296 44.3204 19.8217 44.3184 19.8138C44.3085 19.7367 44.2987 19.6616 44.2888 19.5845C44.269 19.4382 44.2492 19.2939 44.2275 19.1496C44.1998 18.9776 44.1721 18.8056 44.1405 18.6336C44.1128 18.4774 44.0832 18.3213 44.0516 18.1651C44.0417 18.1137 44.0298 18.0623 44.0199 18.0129C43.9903 17.8646 43.9567 17.7163 43.9231 17.57C43.9191 17.5523 43.9151 17.5345 43.9112 17.5167C43.8796 17.3842 43.8479 17.2537 43.8143 17.1233C43.7965 17.0501 43.7787 16.9789 43.759 16.9058C43.7293 16.7911 43.6977 16.6745 43.6641 16.5598C43.6443 16.4867 43.6226 16.4136 43.6008 16.3404C43.585 16.287 43.5692 16.2337 43.5534 16.1783C43.5119 16.0419 43.4703 15.9055 43.4249 15.7711C43.4012 15.692 43.3755 15.6129 43.3478 15.5358C43.3241 15.4607 43.2984 15.3856 43.2707 15.3104C43.2094 15.1305 43.1442 14.9526 43.0769 14.7747C42.9148 14.3437 42.7389 13.9187 42.5511 13.4996C42.5056 13.4027 42.4621 13.3039 42.4147 13.207C42.2783 12.9144 42.1359 12.6238 41.9857 12.3392C41.9857 12.3372 41.9837 12.3372 41.9837 12.3352C39.651 7.87925 35.8336 4.3228 31.1918 2.32217C31.0257 2.251 30.8577 2.17983 30.6877 2.11262C30.5196 2.04342 30.3496 1.97819 30.1776 1.91295C30.0313 1.85759 29.8811 1.80422 29.7328 1.75282C29.6972 1.74096 29.6617 1.72712 29.6261 1.71526C29.4659 1.6599 29.3038 1.60653 29.1397 1.55513C28.9678 1.49977 28.7918 1.4464 28.6178 1.39698C28.6159 1.395 28.6139 1.395 28.6119 1.395C28.4696 1.35348 28.3272 1.31395 28.1829 1.27441C28.1414 1.26255 28.0979 1.25266 28.0564 1.2408C27.8864 1.19731 27.7144 1.15382 27.5424 1.11428C27.3625 1.07079 27.1806 1.03125 26.9988 0.993687C26.8169 0.956125 26.633 0.920541 26.4492 0.886934C26.2693 0.853326 26.0874 0.821696 25.9036 0.794019C25.9036 0.792042 25.8976 0.792042 25.8937 0.792042C25.7098 0.764366 25.524 0.736689 25.3382 0.712966C24.7787 0.639821 24.2113 0.588421 23.638 0.558767C23.4937 0.55086 23.3494 0.544929 23.2051 0.542952C22.9659 0.533068 22.7267 0.529114 22.4855 0.529114C19.6387 0.529114 16.9165 1.07079 14.4197 2.05529C14.0856 2.18774 13.7574 2.32612 13.4313 2.47241C12.9449 2.69383 12.4665 2.93105 12 3.1841C11.6876 3.35411 11.3812 3.53203 11.0787 3.71391C9.86887 4.44932 8.7361 5.29741 7.69427 6.24435C7.43332 6.48158 7.1783 6.72474 6.92921 6.97383C2.94574 10.9553 0.484497 16.4551 0.484497 22.5281C0.484497 24.0444 0.638696 25.5271 0.931278 26.9564C0.968839 27.1363 1.0064 27.3142 1.04792 27.4921V27.4961C1.13095 27.848 1.21991 28.1979 1.31875 28.5458C1.31875 28.5458 1.32073 28.5478 1.31875 28.5498C3.09994 34.8067 7.58357 39.9328 13.4253 42.5799C13.4273 42.5799 13.4293 42.5819 13.4313 42.5838C13.7535 42.7282 14.0817 42.8665 14.4118 42.997C14.7953 43.1492 15.1848 43.2896 15.5802 43.4201C15.8688 43.5169 16.1594 43.6059 16.4539 43.6889C16.7643 43.7779 17.0786 43.8609 17.395 43.9341C18.4921 44.195 19.6229 44.3729 20.7794 44.4619C21.1017 44.4876 21.4239 44.5054 21.7501 44.5133C21.9893 44.5232 22.2285 44.5271 22.4697 44.5271C27.2222 44.5311 31.6227 43.0267 35.2207 40.4685C35.5074 40.263 35.7901 40.0514 36.0668 39.8359C36.2052 39.7272 36.3416 39.6165 36.478 39.5038C36.7489 39.2804 37.0157 39.0491 37.2767 38.8119C37.5357 38.5747 37.7907 38.3335 38.0398 38.0844C38.4134 37.7108 38.7732 37.3233 39.1192 36.9259C39.2991 36.7184 39.475 36.5068 39.6431 36.2933C39.8052 36.0956 39.9613 35.894 40.1136 35.6904C40.3251 35.4077 40.5287 35.121 40.7264 34.8284C40.9241 34.5359 41.1158 34.2373 41.2997 33.9349C43.3201 30.6097 44.4845 26.7053 44.4845 22.5281C44.4845 22.3383 44.4825 22.1486 44.4766 21.9608ZM13.536 4.66085C15.1255 4.66085 16.4144 5.94979 16.4144 7.5412C16.4144 9.13261 15.1255 10.4216 13.536 10.4216C11.9466 10.4216 10.6557 9.13261 10.6557 7.5412C10.6557 5.94979 11.9466 4.66085 13.536 4.66085ZM9.21649 9.43508C10.0112 9.43508 10.6557 10.0795 10.6557 10.8762C10.6557 11.6729 10.0112 12.3154 9.21649 12.3154C8.42177 12.3154 7.77533 11.671 7.77533 10.8762C7.77533 10.0815 8.42177 9.43508 9.21649 9.43508ZM40.586 24.7858C39.475 33.7965 31.7947 40.769 22.4855 40.769C13.1762 40.769 5.49595 33.7965 4.38296 24.7877C4.29004 24.0484 4.24457 23.2932 4.24457 22.5281C4.24457 20.4287 4.59844 18.4102 5.25279 16.5322C5.33187 16.3068 5.52956 16.1447 5.76481 16.1091C10.4105 15.3935 16.2029 14.9684 22.4855 14.9684C28.7681 14.9684 34.5624 15.3935 39.2042 16.1091C39.4394 16.1447 39.6391 16.3068 39.7162 16.5322C40.3706 18.4102 40.7244 20.4287 40.7244 22.5281C40.7244 23.2932 40.679 24.0464 40.586 24.7858Z" fill="url(#paint1_linear_4_25)"/>
<path opacity="0.15" d="M36.3703 8.75345C36.7677 8.0651 35.0732 6.34274 32.5854 4.90646C30.0977 3.47018 27.7589 2.86386 27.3614 3.55221C26.964 4.24056 28.6585 5.96292 31.1463 7.3992C33.634 8.83549 35.9728 9.4418 36.3703 8.75345Z" fill="white"/>
<path opacity="0.15" d="M37.5733 10.6825C37.9772 10.6825 38.3047 10.355 38.3047 9.95106C38.3047 9.54709 37.9772 9.2196 37.5733 9.2196C37.1693 9.2196 36.8418 9.54709 36.8418 9.95106C36.8418 10.355 37.1693 10.6825 37.5733 10.6825Z" fill="white"/>
</g>
<defs>
<linearGradient id="paint0_linear_4_25" x1="5.55137" y1="29.4789" x2="16.9344" y2="18.0959" gradientUnits="userSpaceOnUse">
<stop stop-color="#4302DE"/>
<stop offset="1" stop-color="#8B02DE"/>
</linearGradient>
<linearGradient id="paint1_linear_4_25" x1="6.93119" y1="38.0824" x2="38.0398" y2="6.97383" gradientUnits="userSpaceOnUse">
<stop stop-color="#4302DE"/>
<stop offset="0.54" stop-color="#8B02DE"/>
<stop offset="1" stop-color="#F67106"/>
</linearGradient>
<clipPath id="clip0_4_25">
<rect width="44" height="43.998" fill="white" transform="translate(0.484497 0.529114)"/>
</clipPath>
</defs>
</svg>
